<svg xmlns="http://www.w3.org/2000/svg" viewBox="0 0 384.64 384.64"><defs><style>.cls-1{fill:none;}.cls-2{fill:#010101;}.cls-3{fill:#ef943a;}.cls-4{fill:#fee000;}</style></defs><title>Asset 7</title><g id="Layer_2" data-name="Layer 2"><g id="Layer_1-2" data-name="Layer 1"><path class="cls-1" d="M272.48,270.17l-2.83-11.59,2.86-4L245,234a30.42,30.42,0,0,0,.41-4.18s.38-7-3.31-12.17l37,27.69,4-5.54,11.88-1.12,24.93,17.75,9.62,6.1a157.25,157.25,0,1,0-22.3,33.19l-9.76-7.78Zm-36.84-80a7.9,7.9,0,0,1,4.63,8.49l-.73,4.5a7.88,7.88,0,0,1-2.75,4.78l-26.76-20,23.72,1.68A7.82,7.82,0,0,1,235.64,190.13Zm.29,22.9c-8.2-3.58-24.45-12.88-29.36-15.72a12.92,12.92,0,0,1-2.61-2l-27.89-27.09Zm-29.84-61L228,188.79a7.25,7.25,0,0,0-1.75-.53l-23.82-1.68L174,165.31c6.45-3.18,10.65-11,12.85-19.73l10,2.43A10.06,10.06,0,0,1,206.09,152Zm-38.54.34L166,150.71a2.86,2.86,0,0,0-1.79-.88l-3.88-.37-3.87-.38a2.82,2.82,0,0,0-1.93.52l-1,.72-10.81-8.08a60.62,60.62,0,0,1-7.32-20,37,37,0,0,1-.42-6.31c0-.1,0-.2,0-.29.32.55.68,1.09,1,1.62,4.49,6.5,12.1,12.21,21.62,15.46,12.14,4.15,24.28,3.25,32.27-1.53-1.79,14.05-7.94,28.35-19.38,30.5l-1.42-1.37a2.65,2.65,0,0,1-.89-2.38l.21-1.46a2.56,2.56,0,0,0,0-.39C168.45,155.41,168.38,153.25,167.55,152.37ZM151,153.45c-.11.32-.2.63-.27.9s-.13.52-.16.68,0,.26-.05.39l-.07,1.47a2.63,2.63,0,0,1-1.33,2.17l-.31.2a1.64,1.64,0,0,0,0-.22l.07-1.45a2.47,2.47,0,0,1,.05-.38c0-.15.08-.39.15-.67A6,6,0,0,1,150.3,154a.8.8,0,0,1,.17-.15Zm-21.41-60.8c4.27-12.48,22.44-17.57,40.61-11.36s29.42,21.35,25.16,33.83A18.53,18.53,0,0,1,187,125c-8,4.77-20.14,5.68-32.27,1.53a44.59,44.59,0,0,1-19.86-13.13c-.37-.54-.73-1.08-1.06-1.62V112A30.61,30.61,0,0,1,132,109.4C128.76,103.94,127.7,98.05,129.54,92.65Zm5.69,38.19a58.78,58.78,0,0,0,2.22,6.92l-12.62-9.44ZM75.07,103.92l1-1.51a4.36,4.36,0,0,1,6.22-1.23L138,141.27l10.81,7.79-.85.58a4,4,0,0,0-1.17,1.83l-.48.33a1.22,1.22,0,0,0-.17.15,5.69,5.69,0,0,0-1.25,2.5c-.07.26-.12.49-.15.64a2.2,2.2,0,0,0-.05.37l-.07,1.39a1.8,1.8,0,0,1,0,.22l-1.94,1.21L76.19,110.44A4.85,4.85,0,0,1,75.07,103.92Zm69.43,59-18.44,12.3a8,8,0,0,1-.93-6.14l1.12-4.42a7.78,7.78,0,0,1,6.68-5.86l-.13-.05,0,0c-4.42-1.24-9,1.69-10.11,6.53l-1.2,5.09a9.81,9.81,0,0,0,.62,6.31L107.75,186a13.49,13.49,0,0,1-2.88,1.41l3-21.42-13.79-18.7a10.89,10.89,0,0,1,2.3-15.18l4.08-3,44,32.92-.71.46-.12.08ZM242.08,233a30.06,30.06,0,0,1-.4,4.11,57,57,0,0,1-2.21,9.06c-17.94-8.85-51.9-27.08-71.31-46.9,0,0,34.05,39.41,70.18,50.05a70.43,70.43,0,0,1-6.42,12.58c-14.82-10.65-48.68-36.43-65.58-61.1,0,0,28.69,48.08,64.19,63.2a83.23,83.23,0,0,1-10,11.88c-11.18-11.27-43.1-44.88-56.27-73.9,0,0,21.05,55.34,55,75.11a97,97,0,0,1-8.83,7.45c-1.43,1.06-2.85,2.06-4.29,3-7.19-10.19-35.67-51.89-44.12-84.75,0,0,11.66,60.95,43.31,85.27a85.44,85.44,0,0,1-16.06,8c-3.29-6.84-26.8-56.8-29.59-92.9,0,0,.93,64.25,29.29,93a89.57,89.57,0,0,1-45.14,4.55s-23.92.33-47.1-15.5c32.07-23.07,47-81.4,47-81.4-10,31-39,69-48.23,80.56A85.74,85.74,0,0,1,83.11,273.7c34.71-18,58.79-71.17,58.79-71.17-14.69,27.68-47.77,58.69-60.12,69.74l-.17-.18A95.41,95.41,0,0,1,72.26,260c36.39-12.88,68-59.14,68-59.14-18.43,23.64-54,47.35-69.35,57a80,80,0,0,1-6.41-13c37.17-7.78,74.47-45.91,74.47-45.91-21.15,19.07-57.49,35.53-75.5,43a68.74,68.74,0,0,1-3-13.05c37-3,77.55-32.07,77.55-32.07-22.58,14.14-57.86,23.71-77.9,28.35a42.37,42.37,0,0,1,.31-9.71s1.71-12.23,11.4-14.2c8.2-1.66,26.69-7.93,32.15-9.8l.07,0a13,13,0,0,0,2.82-1.39L121,180.85l2.17-1.42,18.54-12.1.61-.4.7-.46,2.28-1.48,2.21-1.44a2.61,2.61,0,0,0,1.28-1.9l.31-.21a2.62,2.62,0,0,0,1.33-2.16l.07-1.48c0-.13,0-.26.05-.38s.08-.4.16-.69.16-.58.27-.9l.35-.25,1-.71a2.84,2.84,0,0,1,1.9-.51l3.8.37,3.81.37a2.76,2.76,0,0,1,1.76.86l1.53,1.63c.82.87.89,3,.89,3.66,0,.13,0,.25,0,.38l-.21,1.43a2.59,2.59,0,0,0,.87,2.34l1.39,1.35,6,5.81,27.39,26.61a12.53,12.53,0,0,0,2.57,2c4.82,2.79,20.77,11.91,28.83,15.43l6.05,4.52C242.45,226.13,242.08,233,242.08,233Z"/><polygon class="cls-2" points="140.85 161.43 143.67 162.58 143.79 162.5 140.85 161.43"/><path class="cls-2" d="M132.8,158.76l.13.05.09,0Z"/><path class="cls-2" d="M204,195.33a12.92,12.92,0,0,0,2.61,2c4.91,2.84,21.16,12.14,29.36,15.72l-59.86-44.79Z"/><path class="cls-2" d="M319.85,256.41l-24.93-17.75L283,239.78l-4,5.54-37-27.69c3.69,5.16,3.31,12.17,3.31,12.17A30.42,30.42,0,0,1,245,234l27.52,20.59-2.86,4,2.83,11.59,24.93,17.75,2.45,2.45a153.07,153.07,0,0,0,22-32.71Z"/><path class="cls-2" d="M192.32,0C86.11,0,0,86.11,0,192.32S86.11,384.64,192.32,384.64s192.32-86.1,192.32-192.32S298.54,0,192.32,0Zm0,349.37A157.25,157.25,0,1,1,310.54,295.7,157,157,0,0,1,192.32,349.37Z"/><path class="cls-2" d="M168.21,157.94a2.65,2.65,0,0,0,.89,2.38l1.42,1.37c11.44-2.15,17.59-16.45,19.38-30.5-8,4.78-20.13,5.68-32.27,1.53-9.52-3.25-17.13-9-21.62-15.46-.37-.44-.72-.88-1.06-1.33a37,37,0,0,0,.42,6.31,60.62,60.62,0,0,0,7.32,20l10.81,8.08,1-.72a2.82,2.82,0,0,1,1.93-.52l3.87.38,3.88.37a2.86,2.86,0,0,1,1.79.88l1.57,1.66c.83.88.9,3,.9,3.72a2.56,2.56,0,0,1,0,.39Z"/><path class="cls-2" d="M76.19,110.44l66.42,47.84,1.94-1.21a1.8,1.8,0,0,0,0-.22l.07-1.39a2.2,2.2,0,0,1,.05-.37c0-.15.08-.38.15-.64a5.69,5.69,0,0,1,1.25-2.5,1.22,1.22,0,0,1,.17-.15l.48-.33a4,4,0,0,1,1.17-1.83l.85-.58L138,141.27,82.28,101.18a4.36,4.36,0,0,0-6.22,1.23l-1,1.51A4.85,4.85,0,0,0,76.19,110.44Z"/><path class="cls-2" d="M133.79,112v-.28c.33.54.69,1.08,1.06,1.62a44.59,44.59,0,0,0,19.86,13.13C166.84,130.63,179,129.72,187,125a18.53,18.53,0,0,0,8.33-9.83c4.26-12.48-7-27.63-25.16-33.83s-36.34-1.12-40.61,11.36c-1.84,5.4-.78,11.29,2.49,16.75A30.61,30.61,0,0,0,133.79,112Z"/><path class="cls-2" d="M135,115.64c0,.09,0,.19,0,.29.34.45.69.89,1.06,1.33C135.64,116.73,135.28,116.19,135,115.64Z"/><path class="cls-2" d="M135.23,130.84l-10.4-2.52,12.62,9.44A58.78,58.78,0,0,1,135.23,130.84Z"/><path class="cls-2" d="M174,165.31l28.42,21.27,23.82,1.68a7.25,7.25,0,0,1,1.75.53L206.09,152a10.06,10.06,0,0,0-9.19-4l-10-2.43C184.68,154.31,180.48,162.13,174,165.31Z"/><path class="cls-2" d="M134.38,158.79l6.47,2.64,2.94,1.07.71-.46-44-32.92-4.08,3a10.89,10.89,0,0,0-2.3,15.18L107.92,166l-3,21.42a13.49,13.49,0,0,0,2.88-1.41l14.33-9.36a9.81,9.81,0,0,1-.62-6.31l1.2-5.09c1.14-4.84,5.69-7.77,10.11-6.53l0,0,.22,0A7.72,7.72,0,0,1,134.38,158.79Z"/><path class="cls-2" d="M236.79,207.9a7.88,7.88,0,0,0,2.75-4.78l.73-4.5a7.9,7.9,0,0,0-4.63-8.49,7.82,7.82,0,0,0-1.89-.57L210,187.88Z"/><path class="cls-2" d="M132.93,158.81a7.78,7.78,0,0,0-6.68,5.86l-1.12,4.42a8,8,0,0,0,.93,6.14l18.44-12.3-.83-.35-.49.33Z"/><path class="cls-2" d="M134.11,159a8.26,8.26,0,0,0-1.09-.18l-.09,0,10.25,4.1.49-.33-2.82-1.15Z"/><path class="cls-2" d="M133,158.79a8.26,8.26,0,0,1,1.09.18l6.74,2.46-6.47-2.64A7.72,7.72,0,0,0,133,158.79Z"/><path class="cls-2" d="M232.78,216.55c-8.06-3.52-24-12.64-28.83-15.43a12.53,12.53,0,0,1-2.57-2L174,172.56l-6-5.81-1.39-1.35a2.59,2.59,0,0,1-.87-2.34l.21-1.43c0-.13,0-.25,0-.38,0-.67-.07-2.79-.89-3.66L163.56,156a2.76,2.76,0,0,0-1.76-.86l-3.81-.37-3.8-.37a2.84,2.84,0,0,0-1.9.51l-1,.71-.35.25c-.11.32-.2.63-.27.9s-.13.53-.16.69,0,.25-.05.38l-.07,1.48a2.62,2.62,0,0,1-1.33,2.16l-.31.21a2.61,2.61,0,0,1-1.28,1.9L145.27,165,143,166.47l-.7.46-.61.4-18.54,12.1L121,180.85,106.89,190a13,13,0,0,1-2.82,1.39l-.07,0c-5.46,1.87-24,8.14-32.15,9.8-9.69,2-11.4,14.2-11.4,14.2a42.37,42.37,0,0,0-.31,9.71c20-4.64,55.32-14.21,77.9-28.35,0,0-40.55,29.07-77.55,32.07a68.74,68.74,0,0,0,3,13.05c18-7.47,54.35-23.93,75.5-43,0,0-37.3,38.13-74.47,45.91a80,80,0,0,0,6.41,13c15.39-9.66,50.92-33.37,69.35-57,0,0-31.63,46.26-68,59.14a95.41,95.41,0,0,0,9.35,12.09l.17.18c12.35-11,45.43-42.06,60.12-69.74,0,0-24.08,53.15-58.79,71.17a85.74,85.74,0,0,0,12.43,10.75c9.21-11.59,38.19-49.56,48.23-80.56,0,0-14.94,58.33-47,81.4,23.18,15.83,47.1,15.5,47.1,15.5A89.57,89.57,0,0,0,189,296.24c-28.36-28.77-29.29-93-29.29-93,2.79,36.1,26.3,86.06,29.59,92.9a85.44,85.44,0,0,0,16.06-8c-31.65-24.32-43.31-85.27-43.31-85.27,8.45,32.86,36.93,74.56,44.12,84.75,1.44-.94,2.86-1.94,4.29-3a97,97,0,0,0,8.83-7.45c-34-19.77-55-75.11-55-75.11,13.17,29,45.09,62.63,56.27,73.9a83.23,83.23,0,0,0,10-11.88c-35.5-15.12-64.19-63.2-64.19-63.2,16.9,24.67,50.76,50.45,65.58,61.1a70.43,70.43,0,0,0,6.42-12.58c-36.13-10.64-70.18-50.05-70.18-50.05,19.41,19.82,53.37,38.05,71.31,46.9a57,57,0,0,0,2.21-9.06,30.06,30.06,0,0,0,.4-4.11s.37-6.89-3.25-12Z"/><path class="cls-2" d="M149.05,156.54c-.07.28-.12.52-.15.67a2.47,2.47,0,0,0-.05.38l-.07,1.45a1.64,1.64,0,0,1,0,.22l.31-.2a2.63,2.63,0,0,0,1.33-2.17l.07-1.47c0-.13,0-.26.05-.39s.08-.4.16-.68l-.38-.4A6,6,0,0,0,149.05,156.54Z"/><path class="cls-2" d="M150.68,154.35c.07-.27.16-.58.27-.9l-.48.35a.8.8,0,0,0-.17.15Z"/><circle class="cls-2" cx="257.18" cy="108.47" r="37.57"/><path class="cls-3" d="M257.18,149a40.57,40.57,0,1,1,40.57-40.57A40.62,40.62,0,0,1,257.18,149Zm0-75.14a34.57,34.57,0,1,0,34.57,34.57A34.61,34.61,0,0,0,257.18,73.9Z"/><path class="cls-3" d="M251.81,123.2a22.33,22.33,0,0,0,11.38,8.64,22.26,22.26,0,0,1-29.92-19.69A22.23,22.23,0,0,0,251.81,123.2Z"/><path class="cls-3" d="M249,108.18a24.31,24.31,0,0,0,4,13.38,24.42,24.42,0,0,1-20.19-12.46c0-.3,0-.61,0-.92a24.47,24.47,0,0,1,32.57-23.07A24.45,24.45,0,0,0,249,108.18Z"/><path class="cls-3" d="M281.63,108.18a24.47,24.47,0,0,1-16.34,23.08,24.53,24.53,0,0,1-12.36-9.7q.57,0,1.14,0a24.45,24.45,0,0,0,24.45-24.45c0-.31,0-.62,0-.93A24.35,24.35,0,0,1,281.63,108.18Z"/><circle class="cls-4" cx="269.89" cy="92.74" r="6.67"/></g></g></svg>