<svg xmlns="http://www.w3.org/2000/svg" viewBox="0 0 415.1 415.1"><defs><style>.cls-1{fill:#f1f1f1;}.cls-2{fill:#fff;}.cls-3{fill:#010101;}.cls-4{fill:#ef943a;}.cls-5{fill:#fee000;}</style></defs><title>Asset 4</title><g id="Layer_2" data-name="Layer 2"><g id="Layer_1-2" data-name="Layer 1"><path class="cls-1" d="M386.44,415.1H28.66A28.69,28.69,0,0,1,0,386.44V28.66A28.7,28.7,0,0,1,28.66,0H386.44A28.7,28.7,0,0,1,415.1,28.66V386.44A28.69,28.69,0,0,1,386.44,415.1ZM28.66,16.86a11.82,11.82,0,0,0-11.8,11.8V386.44a11.82,11.82,0,0,0,11.8,11.8H386.44a11.81,11.81,0,0,0,11.8-11.8V28.66a11.82,11.82,0,0,0-11.8-11.8Z"/><path class="cls-2" d="M337.91,299.73l-3.33-13.64,3.36-4.72-32.37-24.23a35.87,35.87,0,0,0,.48-4.92s.44-8.25-3.9-14.31l43.54,32.57,4.64-6.52,14-1.31,18,12.8V50.57a17.81,17.81,0,0,0-17.76-17.76h-314A17.81,17.81,0,0,0,32.81,50.57v314a17.81,17.81,0,0,0,17.76,17.76h314a17.81,17.81,0,0,0,17.76-17.76V332.6l-15.05-12Zm-43.35-94.19a9.31,9.31,0,0,1,5.45,10l-.86,5.3a9.19,9.19,0,0,1-3.24,5.63L264.42,202.9l27.92,2A8.93,8.93,0,0,1,294.56,205.54Zm.35,27c-9.66-4.21-28.77-15.15-34.55-18.49a15.89,15.89,0,0,1-3.08-2.33l-32.81-31.88ZM259.8,160.71,285.59,204a8.64,8.64,0,0,0-2.06-.62l-28-2-33.44-25c7.59-3.74,12.52-12.94,15.12-23.22L249,156A11.89,11.89,0,0,1,259.8,160.71Zm-45.36.41-1.84-2a3.34,3.34,0,0,0-2.11-1l-4.56-.44-4.56-.44a3.34,3.34,0,0,0-2.27.61l-1.19.85-12.72-9.52a71.4,71.4,0,0,1-8.61-23.53,43,43,0,0,1-.49-7.42v-.34c.39.64.81,1.28,1.24,1.91,5.28,7.64,14.24,14.36,25.44,18.19,14.29,4.88,28.57,3.82,38-1.81-2.11,16.54-9.36,33.36-22.82,35.9l-1.66-1.62a3.1,3.1,0,0,1-1.05-2.8l.25-1.72a3.4,3.4,0,0,0,0-.45C215.5,164.7,215.42,162.15,214.44,161.12Zm-19.52,1.27a9.67,9.67,0,0,0-.33,1.06,7.92,7.92,0,0,0-.18.8,3.47,3.47,0,0,0-.06.45l-.08,1.74A3.12,3.12,0,0,1,192.7,169l-.37.25a2.48,2.48,0,0,0,0-.27l.08-1.7a3.47,3.47,0,0,1,.06-.45c0-.18.09-.46.18-.79a7,7,0,0,1,1.46-3.05l.21-.18Zm-25.2-71.54c5-14.69,26.41-20.67,47.78-13.37s34.62,25.12,29.61,39.8a21.79,21.79,0,0,1-9.81,11.57c-9.4,5.62-23.69,6.68-38,1.8-9.84-3.36-18-9-23.37-15.45-.43-.63-.85-1.26-1.24-1.91v.34a34.55,34.55,0,0,1-2.07-3.08C168.8,104.13,167.55,97.2,169.72,90.85Zm6.69,44.93a67.18,67.18,0,0,0,2.62,8.14l-14.85-11.11Zm-70.78-31.67,1.16-1.78a5.14,5.14,0,0,1,7.32-1.45l65.5,47.18,12.72,9.16-1,.69a4.54,4.54,0,0,0-1.38,2.15l-.57.39-.2.17a6.65,6.65,0,0,0-1.47,2.94c-.08.31-.14.58-.18.76a3,3,0,0,0,0,.43l-.08,1.64,0,.25-2.28,1.43L107,111.78A5.69,5.69,0,0,1,105.63,104.11Zm81.7,69.43L165.63,188a9.44,9.44,0,0,1-1.1-7.22l1.31-5.2a9.18,9.18,0,0,1,7.87-6.9l-.15-.06h0c-5.2-1.47-10.56,2-11.9,7.68l-1.41,6a11.58,11.58,0,0,0,.73,7.43l-16.86,11a15.9,15.9,0,0,1-3.39,1.66l3.59-25.2-16.23-22a12.81,12.81,0,0,1,2.71-17.86l4.8-3.55,51.77,38.73-.85.55-.14.09ZM302.14,256a37.57,37.57,0,0,1-.47,4.83,67.28,67.28,0,0,1-2.6,10.66C278,261.09,238,239.65,215.16,216.33c0,0,40.06,46.37,82.58,58.89a83.7,83.7,0,0,1-7.55,14.8c-17.44-12.53-57.29-42.87-77.17-71.9,0,0,33.76,56.57,75.52,74.38a96.46,96.46,0,0,1-11.74,14c-13.14-13.25-50.71-52.8-66.2-86.95,0,0,24.77,65.12,64.73,88.38a114.84,114.84,0,0,1-10.4,8.76c-1.67,1.25-3.36,2.43-5,3.53-8.46-12-42-61-51.92-99.72,0,0,13.72,71.73,51,100.34A100.63,100.63,0,0,1,240,330.27c-3.87-8-31.53-66.84-34.81-109.33,0,0,1.09,75.61,34.46,109.46-28.4,10.54-53.11,5.36-53.11,5.36s-28.15.38-55.42-18.24c37.74-27.15,55.32-95.78,55.32-95.78-11.82,36.47-45.92,81.16-56.75,94.79a99.93,99.93,0,0,1-14.63-12.65c40.84-21.21,69.17-83.75,69.17-83.75-17.29,32.58-56.2,69.06-70.74,82.07l-.2-.22a112.71,112.71,0,0,1-11-14.22c42.82-15.16,80-69.59,80-69.59-21.69,27.82-63.5,55.71-81.6,67.09a93.59,93.59,0,0,1-7.54-15.34c43.73-9.15,87.61-54,87.61-54C156,238.34,113.2,257.7,92,266.5a80.22,80.22,0,0,1-3.53-15.36c43.54-3.53,91.25-37.73,91.25-37.73C153.16,230,111.64,241.3,88.06,246.76a49.54,49.54,0,0,1,.37-11.42s2-14.39,13.4-16.7c9.66-2,31.41-9.33,37.83-11.54l.08,0a15.16,15.16,0,0,0,3.33-1.64l16.56-10.81,2.56-1.66L184,178.72l.71-.47.82-.54,2.68-1.74,2.6-1.7a3,3,0,0,0,1.51-2.24l.37-.24a3.15,3.15,0,0,0,1.57-2.55l.08-1.73a3.62,3.62,0,0,1,.06-.46c0-.18.09-.47.18-.8a9.67,9.67,0,0,1,.33-1.06l.4-.29,1.17-.84a3.28,3.28,0,0,1,2.23-.6l4.48.44,4.47.43a3.29,3.29,0,0,1,2.08,1l1.8,1.92c1,1,1,3.52,1,4.3a3.4,3.4,0,0,1,0,.45l-.25,1.69a3.05,3.05,0,0,0,1,2.75L215,178l7,6.85,32.22,31.31a15.77,15.77,0,0,0,3,2.29c5.67,3.28,24.44,14,33.93,18.15l7.11,5.33C302.58,247.91,302.14,256,302.14,256Z"/><circle class="cls-3" cx="323.26" cy="98.76" r="37.57"/><path class="cls-4" d="M323.26,139.33a40.57,40.57,0,1,1,40.57-40.57A40.62,40.62,0,0,1,323.26,139.33Zm0-75.14a34.57,34.57,0,1,0,34.57,34.57A34.61,34.61,0,0,0,323.26,64.19Z"/><path class="cls-4" d="M317.89,113.49a22.33,22.33,0,0,0,11.38,8.64,22.26,22.26,0,0,1-29.92-19.7A22.24,22.24,0,0,0,317.89,113.49Z"/><path class="cls-4" d="M315,98.47a24.31,24.31,0,0,0,4,13.38,24.47,24.47,0,0,1-20.19-12.46c0-.3,0-.61,0-.92A24.46,24.46,0,0,1,331.37,75.4,24.45,24.45,0,0,0,315,98.47Z"/><path class="cls-4" d="M347.71,98.47a24.47,24.47,0,0,1-16.34,23.08,24.53,24.53,0,0,1-12.36-9.7q.57,0,1.14,0A24.45,24.45,0,0,0,344.6,87.42c0-.3,0-.61,0-.92A24.34,24.34,0,0,1,347.71,98.47Z"/><circle class="cls-5" cx="335.97" cy="83.02" r="6.67"/></g></g></svg>