<svg xmlns="http://www.w3.org/2000/svg" viewBox="0 0 414.79 414.79"><defs><style>.cls-1{fill:#010101;}.cls-2{fill:#ef943a;}.cls-3{fill:#fee000;}</style></defs><title>Asset 6</title><g id="Layer_2" data-name="Layer 2"><g id="Layer_1-2" data-name="Layer 1"><path class="cls-1" d="M318.62,281.42l2.75-3.86-26.48-19.82a31,31,0,0,0,.4-4s.36-6.75-3.19-11.71l35.61,26.65,3.8-5.34,11.43-1.07,19.49,13.88a169.7,169.7,0,1,0-18.84,32.28l-22.24-15.83Zm-32.73-65.88a7.62,7.62,0,0,1,4.46,8.17l-.71,4.33a7.49,7.49,0,0,1-2.65,4.6l-25.75-19.27L284.07,215A7.26,7.26,0,0,1,285.89,215.54Zm.28,22c-7.9-3.45-23.53-12.39-28.26-15.13a12.53,12.53,0,0,1-2.52-1.9l-26.83-26.08Zm-28.72-58.71,21.11,35.38a7.35,7.35,0,0,0-1.69-.51l-22.93-1.62-27.35-20.47c6.21-3.06,10.25-10.59,12.37-19L248.6,175A9.67,9.67,0,0,1,257.45,178.87Zm-37.1.33-1.5-1.6a2.8,2.8,0,0,0-1.73-.85l-3.73-.36-3.73-.36a2.8,2.8,0,0,0-1.86.5l-1,.7-10.4-7.79a58.37,58.37,0,0,1-7.05-19.24,37.39,37.39,0,0,1-.4-6.08c0-.09,0-.18,0-.27.31.52.65,1,1,1.56,4.32,6.25,11.65,11.75,20.81,14.88,11.68,4,23.37,3.12,31.06-1.48-1.72,13.53-7.65,27.28-18.66,29.36l-1.36-1.32a2.55,2.55,0,0,1-.86-2.29l.21-1.41c0-.12,0-.25,0-.37C221.22,182.13,221.15,180,220.35,179.2Zm-16,1c-.1.31-.19.61-.26.87s-.12.51-.15.66a2.35,2.35,0,0,0-.05.37l-.07,1.42a2.51,2.51,0,0,1-1.28,2.08l-.3.2a1.49,1.49,0,0,0,0-.21l.07-1.4a2.23,2.23,0,0,1,0-.36,6.12,6.12,0,0,1,.14-.65,5.67,5.67,0,0,1,1.2-2.49c.06-.05.11-.11.17-.15Zm-20.61-58.51c4.11-12,21.6-16.91,39.08-10.94s28.33,20.55,24.22,32.56a17.75,17.75,0,0,1-8,9.46c-7.69,4.6-19.37,5.47-31.06,1.48a43,43,0,0,1-19.11-12.64c-.36-.51-.7-1-1-1.56,0,.09,0,.18,0,.28-.61-.83-1.18-1.67-1.69-2.52C183,132.59,182,126.91,183.77,121.72Zm5.48,36.75a55.68,55.68,0,0,0,2.14,6.66l-12.15-9.08Zm-57.9-25.9,1-1.46a4.21,4.21,0,0,1,6-1.18l53.57,38.59L202.27,176l-.81.56a3.76,3.76,0,0,0-1.13,1.76l-.46.32-.17.14a5.49,5.49,0,0,0-1.2,2.41c-.07.25-.12.47-.15.62s0,.23,0,.35l-.07,1.34a1.49,1.49,0,0,1,0,.21l-1.87,1.17-63.92-46A4.65,4.65,0,0,1,131.35,132.57Zm66.83,56.79L180.43,201.2a7.7,7.7,0,0,1-.9-5.91L180.6,191a7.52,7.52,0,0,1,6.44-5.65l-.13,0,0,0c-4.25-1.2-8.63,1.63-9.73,6.29L176,196.51a9.45,9.45,0,0,0,.59,6.08l-13.79,9A13.19,13.19,0,0,1,160,213L163,192.34l-13.28-18a10.48,10.48,0,0,1,2.21-14.61l3.94-2.9,42.34,31.68-.69.45-.12.08Zm93.91,67.46a30.65,30.65,0,0,1-.39,3.95,53.42,53.42,0,0,1-2.13,8.72C272.31,261,239.63,243.43,221,224.36c0,0,32.76,37.92,67.54,48.17a68.82,68.82,0,0,1-6.18,12.11c-14.26-10.25-46.86-35.07-63.12-58.82,0,0,27.62,46.28,61.78,60.84a79.66,79.66,0,0,1-9.61,11.43c-10.75-10.85-41.47-43.2-54.15-71.13,0,0,20.26,53.27,53,72.29a91.12,91.12,0,0,1-8.51,7.17q-2.06,1.53-4.12,2.89c-6.92-9.81-34.34-49.94-42.47-81.57,0,0,11.22,58.67,41.69,82.07a81.78,81.78,0,0,1-15.46,7.74c-3.17-6.58-25.8-54.67-28.48-89.42,0,0,.89,61.84,28.19,89.53a86.23,86.23,0,0,1-43.45,4.39,86.43,86.43,0,0,1-45.33-14.92c30.87-22.21,45.25-78.35,45.25-78.35-9.66,29.84-37.56,66.39-46.42,77.54a82.4,82.4,0,0,1-12-10.35c33.4-17.34,56.58-68.5,56.58-68.5-14.14,26.65-46,56.49-57.87,67.12l-.16-.17a91.15,91.15,0,0,1-9-11.64c35-12.39,65.46-56.92,65.46-56.92-17.74,22.76-51.94,45.58-66.74,54.88a75.79,75.79,0,0,1-6.17-12.55C157,260.71,192.87,224,192.87,224c-20.35,18.36-55.33,34.19-72.67,41.38a65.55,65.55,0,0,1-2.88-12.56C152.93,250,192,222,192,222c-21.74,13.6-55.69,22.82-75,27.28a40.32,40.32,0,0,1,.3-9.34s1.65-11.77,11-13.66c7.89-1.61,25.69-7.64,30.94-9.44l.07,0a12.7,12.7,0,0,0,2.72-1.33l13.54-8.85,2.09-1.36,17.85-11.65.58-.38.68-.44,2.19-1.43L201,190a2.5,2.5,0,0,0,1.23-1.82l.3-.2a2.53,2.53,0,0,0,1.28-2.08l.07-1.42a2.47,2.47,0,0,1,.05-.38c0-.15.08-.38.15-.65s.16-.57.26-.87l.34-.24.95-.68a2.64,2.64,0,0,1,1.82-.49l3.67.35,3.66.35a2.71,2.71,0,0,1,1.7.84l1.47,1.56c.79.84.86,2.88.86,3.52a2.22,2.22,0,0,1,0,.37l-.2,1.38a2.53,2.53,0,0,0,.84,2.25l1.34,1.3,5.76,5.59,26.35,25.61a12.56,12.56,0,0,0,2.48,1.88c4.64,2.68,20,11.46,27.75,14.85l5.82,4.35C292.44,250.19,292.09,256.82,292.09,256.82Z"/><path class="cls-1" d="M188.43,185.37a7.15,7.15,0,0,0-1.39,0l9.86,4,.47-.31Z"/><path class="cls-1" d="M207.4,414.79C93,414.79,0,321.75,0,207.4S93,0,207.4,0,414.79,93,414.79,207.4,321.75,414.79,207.4,414.79Zm0-403C99.55,11.8,11.8,99.55,11.8,207.4S99.55,403,207.4,403,403,315.25,403,207.4,315.25,11.8,207.4,11.8Z"/><circle class="cls-1" cx="308.15" cy="148.54" r="37.57"/><path class="cls-2" d="M308.15,189.11a40.57,40.57,0,1,1,40.58-40.57A40.62,40.62,0,0,1,308.15,189.11Zm0-75.14a34.57,34.57,0,1,0,34.57,34.57A34.61,34.61,0,0,0,308.15,114Z"/><path class="cls-2" d="M302.79,163.26a22.21,22.21,0,0,0,11.38,8.65,22.27,22.27,0,0,1-29.93-19.7A22.27,22.27,0,0,0,302.79,163.26Z"/><path class="cls-2" d="M299.93,148.25a24.31,24.31,0,0,0,4,13.38,24.45,24.45,0,0,1-20.19-12.46c0-.3,0-.61,0-.92a24.49,24.49,0,0,1,32.57-23.08A24.47,24.47,0,0,0,299.93,148.25Z"/><path class="cls-2" d="M332.61,148.25a24.48,24.48,0,0,1-16.34,23.08,24.55,24.55,0,0,1-12.36-9.7q.55,0,1.14,0A24.46,24.46,0,0,0,329.5,137.2c0-.31,0-.61,0-.92A24.35,24.35,0,0,1,332.61,148.25Z"/><circle class="cls-3" cx="320.87" cy="132.8" r="6.67"/></g></g></svg>