<svg xmlns="http://www.w3.org/2000/svg" viewBox="0 0 415.1 415.1"><defs><style>.cls-1{fill:#010101;}.cls-2{fill:#ef943a;}.cls-3{fill:#fee000;}.cls-4{fill:#fff;}</style></defs><title>Asset 1</title><g id="Layer_2" data-name="Layer 2"><g id="Layer_1-2" data-name="Layer 1"><path class="cls-1" d="M386.44,415.1H28.66A28.7,28.7,0,0,1,0,386.44V28.66A28.7,28.7,0,0,1,28.66,0H386.44A28.7,28.7,0,0,1,415.1,28.66V386.44A28.7,28.7,0,0,1,386.44,415.1ZM28.66,16.86a11.82,11.82,0,0,0-11.8,11.8V386.44a11.82,11.82,0,0,0,11.8,11.8H386.44a11.81,11.81,0,0,0,11.8-11.8V28.66a11.82,11.82,0,0,0-11.8-11.8Z"/><polygon class="cls-1" points="374.06 281.14 371.39 279.45 371.39 280.99 374.06 281.14"/><path class="cls-1" d="M312.05,277.45c-1.25-.07-2.51-.09-3.77-.05l0-.17,3.18-4.47-30.61-22.9a33.45,33.45,0,0,0,.46-4.65s.42-7.8-3.68-13.53l41.15,30.79,4.39-6.16,13.22-1.24,27.72,19.74,7.32,4.64V59.16a16.83,16.83,0,0,0-16.78-16.78H57.83A16.84,16.84,0,0,0,41,59.16V355.94a16.85,16.85,0,0,0,16.79,16.79H354.61a16.84,16.84,0,0,0,16.78-16.79V281Zm-41.64-76.36a8.79,8.79,0,0,1,5.15,9.44l-.81,5a8.8,8.8,0,0,1-3.06,5.32l-29.77-22.27,26.39,1.87A8.66,8.66,0,0,1,270.41,201.09Zm.33,25.47c-9.13-4-27.2-14.32-32.66-17.48a14.84,14.84,0,0,1-2.91-2.2l-31-30.14Zm-33.19-67.85,24.38,40.89A7.92,7.92,0,0,0,260,199l-26.5-1.88-31.61-23.65c7.18-3.55,11.84-12.24,14.3-22l11.14,2.7A11.22,11.22,0,0,1,237.55,158.71Zm-42.88.38-1.74-1.84a3.11,3.11,0,0,0-2-1l-4.31-.42-4.31-.42a3.22,3.22,0,0,0-2.15.58l-1.12.81-12-9a67.16,67.16,0,0,1-8.15-22.24,42.36,42.36,0,0,1-.46-7v-.32c.37.61.77,1.21,1.18,1.81,5,7.22,13.46,13.57,24,17.19,13.51,4.61,27,3.61,35.9-1.71-2,15.64-8.84,31.53-21.57,33.93l-1.57-1.53a2.93,2.93,0,0,1-1-2.64l.24-1.63a3,3,0,0,0,0-.43C195.68,162.48,195.6,160.07,194.67,159.09Zm-18.45,1.2c-.13.36-.23.7-.31,1s-.14.59-.17.76a3.41,3.41,0,0,0-.06.43l-.08,1.64a2.92,2.92,0,0,1-1.48,2.41l-.35.23a2.13,2.13,0,0,0,0-.25l.08-1.61a3,3,0,0,1,.05-.42c0-.18.09-.44.17-.75a6.51,6.51,0,0,1,1.39-2.88,1.54,1.54,0,0,1,.19-.17ZM152.4,92.67c4.74-13.88,25-19.54,45.16-12.64s32.73,23.75,28,37.63a20.56,20.56,0,0,1-9.26,10.93c-8.9,5.32-22.4,6.32-35.9,1.71-9.3-3.18-17-8.47-22.09-14.61-.41-.6-.81-1.2-1.17-1.8v.31a32.82,32.82,0,0,1-2-2.9C151.54,105.23,150.35,98.67,152.4,92.67Zm6.32,42.47a65.26,65.26,0,0,0,2.48,7.7l-14-10.5ZM91.82,105.2l1.1-1.68a4.85,4.85,0,0,1,6.91-1.37l61.92,44.6,12,8.66-.94.65a4.27,4.27,0,0,0-1.29,2l-.54.37a1.54,1.54,0,0,0-.19.17,6.17,6.17,0,0,0-1.39,2.77c-.08.3-.14.55-.17.72a2.7,2.7,0,0,0-.05.41l-.08,1.55a2,2,0,0,1,0,.24l-2.15,1.35L93.07,112.46A5.39,5.39,0,0,1,91.82,105.2ZM169,170.83l-20.51,13.69a9,9,0,0,1-1-6.83l1.24-4.91a8.67,8.67,0,0,1,7.43-6.53l-.14-.05,0,0c-4.92-1.39-10,1.88-11.24,7.26l-1.34,5.66a11,11,0,0,0,.69,7l-15.94,10.41a14.62,14.62,0,0,1-3.2,1.57l3.39-23.82L113,153.47a12.09,12.09,0,0,1,2.55-16.88l4.54-3.35L169,169.85l-.79.51-.14.09Zm108.53,78a33.7,33.7,0,0,1-.44,4.56,62.86,62.86,0,0,1-2.46,10.08c-20-9.84-57.72-30.11-79.31-52.16,0,0,37.86,43.83,78.05,55.67a78.28,78.28,0,0,1-7.14,14c-16.48-11.84-54.14-40.52-72.94-68,0,0,31.23,52.3,70.12,69.72l-20.63,2.53c-15.95-17.15-40.28-45.61-51.78-70.94,0,0,17.08,44.89,45.59,71.69l-13.48,1.65c-12.41-19.79-28.38-48.26-34.59-72.44,0,0,8.05,42.08,28.68,73.16l-11.11,1.36c-8.52-21.4-18.35-50.4-20.17-74.06,0,0,.59,41,14.57,74.75l-13,1.59a38.2,38.2,0,0,1-10-.11L136.32,286c21.67-29.61,31.91-69.59,31.91-69.59-7.5,23.16-24.5,49.81-38,68.72l-13.54-1.94c29.83-25.05,49.42-68.3,49.42-68.3-13,24.46-38.85,51.24-55.83,67.39L89,279.21l-.28-.41C129.16,264.47,164.35,213,164.35,213c-20.51,26.3-60,52.67-77.14,63.42a88.64,88.64,0,0,1-7.13-14.5c41.34-8.65,82.83-51.06,82.83-51.06-23.52,21.21-63.94,39.51-84,47.82a76,76,0,0,1-3.33-14.51c41.15-3.34,86.26-35.67,86.26-35.67-25.12,15.73-64.36,26.37-86.65,31.53a46.52,46.52,0,0,1,.35-10.8s1.9-13.6,12.67-15.79c9.13-1.85,29.69-8.82,35.76-10.9l.08,0a14.79,14.79,0,0,0,3.14-1.55l15.66-10.22,2.41-1.57,20.63-13.46.67-.44.78-.51,2.53-1.65,2.46-1.61a2.87,2.87,0,0,0,1.42-2.11l.35-.23a2.92,2.92,0,0,0,1.48-2.4l.08-1.65a3,3,0,0,1,.06-.42c0-.18.09-.45.17-.76s.18-.65.31-1l.38-.27,1.1-.79a3.12,3.12,0,0,1,2.11-.57l4.24.41,4.23.41a3.08,3.08,0,0,1,2,1L192,164.9c.9,1,1,3.33,1,4.07a3,3,0,0,1,0,.42l-.23,1.6a2.92,2.92,0,0,0,1,2.6l1.55,1.49,6.65,6.47,30.46,29.6a14.33,14.33,0,0,0,2.86,2.16c5.36,3.1,23.11,13.26,32.07,17.17l6.73,5C278,241.14,277.57,248.8,277.57,248.8Z"/><path class="cls-1" d="M156.17,166.25l11.4,4.56.54-.36-10.33-4.22A8.65,8.65,0,0,0,156.17,166.25Z"/><circle class="cls-1" cx="321.44" cy="98.15" r="37.57"/><path class="cls-2" d="M321.44,138.72A40.57,40.57,0,1,1,362,98.15,40.62,40.62,0,0,1,321.44,138.72Zm0-75.14A34.57,34.57,0,1,0,356,98.15,34.61,34.61,0,0,0,321.44,63.58Z"/><path class="cls-2" d="M316.07,112.88a22.33,22.33,0,0,0,11.38,8.64,22.26,22.26,0,0,1-29.92-19.69A22.27,22.27,0,0,0,316.07,112.88Z"/><path class="cls-2" d="M313.21,97.86a24.39,24.39,0,0,0,4,13.38A24.47,24.47,0,0,1,297,98.78c0-.3,0-.61,0-.92a24.46,24.46,0,0,1,32.56-23.07A24.46,24.46,0,0,0,313.21,97.86Z"/><path class="cls-2" d="M345.89,97.86a24.47,24.47,0,0,1-16.34,23.08,24.53,24.53,0,0,1-12.36-9.7q.57,0,1.14,0a24.46,24.46,0,0,0,24.46-24.45c0-.31,0-.62,0-.93A24.34,24.34,0,0,1,345.89,97.86Z"/><circle class="cls-3" cx="334.16" cy="82.41" r="6.67"/><path class="cls-4" d="M72.94,333.27v12.38H69.1V319.71h8.46a11.15,11.15,0,0,1,6.49,1.76,5.44,5.44,0,0,1,2.52,4.65,5.56,5.56,0,0,1-2,4.54A11.62,11.62,0,0,1,79.09,333l10.5,12.7L85,346.2,76,333.27Zm0-1.18h2.51q7,0,7-5.56a5.88,5.88,0,0,0-.47-2.12,5.18,5.18,0,0,0-3.84-3.25,20.65,20.65,0,0,0-5.25.67Z"/><path class="cls-4" d="M97.7,319.71v25.94H94.09V319.71Z"/><path class="cls-4" d="M113.25,346.27l-11.63-26.56h4.27L114.51,341l7.75-21.24h2l-10.34,26.56Z"/><path class="cls-4" d="M128.14,345.65V319.71h15.71l-.39,2.63-7.29-1.22a15.17,15.17,0,0,0-4.23.67v9.52h8.7v1.49h-8.7v11.44L144.08,343l-.39,2.63Z"/><path class="cls-4" d="M154,333.27v12.38h-3.84V319.71h8.46a11.09,11.09,0,0,1,6.48,1.76,5.42,5.42,0,0,1,2.53,4.65,5.56,5.56,0,0,1-2,4.54,11.62,11.62,0,0,1-5.46,2.29l10.5,12.7-4.55.55L157,333.27Zm0-1.18h2.5q7,0,7.06-5.56a5.88,5.88,0,0,0-.47-2.12,5.22,5.22,0,0,0-3.84-3.25,20.65,20.65,0,0,0-5.25.67Z"/><path class="cls-4" d="M188.75,332.8v12.85H185V319.71h3.8v11.6h11.87v-11.6h3.8v25.94h-3.8V332.8Z"/><path class="cls-4" d="M223.26,319.24a11.38,11.38,0,0,1,8.42,3.35q3.33,3.35,3.34,9.31a15.79,15.79,0,0,1-1.34,6.71,11.15,11.15,0,0,1-3.48,4.45,15.35,15.35,0,0,1-9.25,3.06,11.18,11.18,0,0,1-8.36-3.39q-3.32-3.39-3.31-9.35a16.58,16.58,0,0,1,.88-5.58,11.46,11.46,0,0,1,2.31-4.05,13.24,13.24,0,0,1,3.31-2.63A15.41,15.41,0,0,1,223.26,319.24Zm-5.13,24.62a8,8,0,0,0,4,1,7.2,7.2,0,0,0,4-1.13,7.85,7.85,0,0,0,2.74-3,16.23,16.23,0,0,0,2-7.91,15.15,15.15,0,0,0-2.07-8.39c-1.55-2.37-4.09-3.56-7.64-3.56a10.51,10.51,0,0,0-5.76,4.58,14,14,0,0,0-2,7.37,16.42,16.42,0,0,0,2,8.38A7.19,7.19,0,0,0,218.13,343.86Z"/><path class="cls-4" d="M243.71,333.27v12.38h-3.84V319.71h8.47a11.14,11.14,0,0,1,6.48,1.76,5.45,5.45,0,0,1,2.53,4.65,5.59,5.59,0,0,1-2,4.54,11.7,11.7,0,0,1-5.47,2.29l10.5,12.7-4.54.55-9.09-12.93Zm0-1.18h2.51q7,0,7.05-5.56a5.88,5.88,0,0,0-.47-2.12,5.18,5.18,0,0,0-3.84-3.25,20.77,20.77,0,0,0-5.25.67Z"/><path class="cls-4" d="M268.47,319.71v25.94h-3.6V319.71Z"/><path class="cls-4" d="M272.62,345.65v-.4l15-23.46a15.27,15.27,0,0,0-4.27-.67l-8.07,1.22-.39-2.63h18.33v.39l-15.43,24L291.82,343l.39,2.63Z"/><path class="cls-4" d="M309.69,319.24a11.39,11.39,0,0,1,8.42,3.35q3.33,3.35,3.33,9.31a15.79,15.79,0,0,1-1.33,6.71,11.08,11.08,0,0,1-3.49,4.45,15.32,15.32,0,0,1-9.24,3.06,11.21,11.21,0,0,1-8.37-3.39q-3.31-3.39-3.31-9.35a16.58,16.58,0,0,1,.88-5.58,11.77,11.77,0,0,1,2.31-4.05,13.42,13.42,0,0,1,3.31-2.63A15.45,15.45,0,0,1,309.69,319.24Zm-5.14,24.62a8.06,8.06,0,0,0,4,1,7.25,7.25,0,0,0,4-1.13,7.93,7.93,0,0,0,2.74-3,16.34,16.34,0,0,0,2-7.91,15.15,15.15,0,0,0-2.08-8.39q-2.31-3.56-7.64-3.56a10.58,10.58,0,0,0-5.76,4.58,14.05,14.05,0,0,0-2,7.37,16.52,16.52,0,0,0,2,8.38A7.19,7.19,0,0,0,304.55,343.86Z"/><path class="cls-4" d="M346,346.08h-.66l-17.16-21.47H328v21H326.3V319.71h2.9l14.92,18.85h.16V319.71H346Z"/></g></g></svg>